<?xml version="1.0" encoding="UTF-8"?>
<svg xmlns="http://www.w3.org/2000/svg" xmlns:xlink="http://www.w3.org/1999/xlink" width="16px" height="16px" viewBox="0 0 16 16" version="1.1">
<defs>
<filter id="alpha" filterUnits="objectBoundingBox" x="0%" y="0%" width="100%" height="100%">
  <feColorMatrix type="matrix" in="SourceGraphic" values="0 0 0 0 1 0 0 0 0 1 0 0 0 0 1 0 0 0 1 0"/>
</filter>
<mask id="mask0">
  <g filter="url(#alpha)">
<rect x="0" y="0" width="16" height="16" style="fill:rgb(0%,0%,0%);fill-opacity:0.1;stroke:none;"/>
  </g>
</mask>
<clipPath id="clip1">
  <rect x="0" y="0" width="192" height="152"/>
</clipPath>
<g id="surface6291" clip-path="url(#clip1)">
<path style=" stroke:none;fill-rule:nonzero;fill:rgb(0%,0%,0%);fill-opacity:1;" d="M 44 84 L 72 84 L 72 86 L 44 86 Z M 44 84 "/>
</g>
<mask id="mask1">
  <g filter="url(#alpha)">
<rect x="0" y="0" width="16" height="16" style="fill:rgb(0%,0%,0%);fill-opacity:0.2;stroke:none;"/>
  </g>
</mask>
<clipPath id="clip2">
  <rect x="0" y="0" width="192" height="152"/>
</clipPath>
<g id="surface6294" clip-path="url(#clip2)">
<path style=" stroke:none;fill-rule:nonzero;fill:rgb(0%,0%,0%);fill-opacity:1;" d="M 72 84 L 100 84 L 100 86 L 72 86 Z M 72 84 "/>
</g>
<mask id="mask2">
  <g filter="url(#alpha)">
<rect x="0" y="0" width="16" height="16" style="fill:rgb(0%,0%,0%);fill-opacity:0.2;stroke:none;"/>
  </g>
</mask>
<clipPath id="clip3">
  <rect x="0" y="0" width="192" height="152"/>
</clipPath>
<g id="surface6297" clip-path="url(#clip3)">
<path style=" stroke:none;fill-rule:nonzero;fill:rgb(0%,0%,0%);fill-opacity:1;" d="M 72 82 L 100 82 L 100 84 L 72 84 Z M 72 82 "/>
</g>
<mask id="mask3">
  <g filter="url(#alpha)">
<rect x="0" y="0" width="16" height="16" style="fill:rgb(0%,0%,0%);fill-opacity:0.1;stroke:none;"/>
  </g>
</mask>
<clipPath id="clip4">
  <rect x="0" y="0" width="192" height="152"/>
</clipPath>
<g id="surface6300" clip-path="url(#clip4)">
<path style=" stroke:none;fill-rule:nonzero;fill:rgb(0%,0%,0%);fill-opacity:1;" d="M 44 82 L 72 82 L 72 84 L 44 84 Z M 44 82 "/>
</g>
<mask id="mask4">
  <g filter="url(#alpha)">
<rect x="0" y="0" width="16" height="16" style="fill:rgb(0%,0%,0%);fill-opacity:0.33;stroke:none;"/>
  </g>
</mask>
<clipPath id="clip5">
  <rect x="0" y="0" width="192" height="152"/>
</clipPath>
<g id="surface6303" clip-path="url(#clip5)">
<path style=" stroke:none;fill-rule:nonzero;fill:rgb(0%,0%,0%);fill-opacity:1;" d="M 63.359375 55.386719 L 62.175781 59.210938 L 44 114 L 44 122 L 52 118 L 69.820312 61.574219 L 71.003906 57.75 Z M 63.359375 55.386719 "/>
</g>
<mask id="mask5">
  <g filter="url(#alpha)">
<rect x="0" y="0" width="16" height="16" style="fill:rgb(0%,0%,0%);fill-opacity:0.25;stroke:none;"/>
  </g>
</mask>
<clipPath id="clip6">
  <rect x="0" y="0" width="192" height="152"/>
</clipPath>
<g id="surface6306" clip-path="url(#clip6)">
<path style=" stroke:none;fill-rule:nonzero;fill:rgb(0%,0%,0%);fill-opacity:1;" d="M 80.640625 55.386719 L 81.824219 59.210938 L 100 114 L 100 122 L 92 118 L 74.175781 61.574219 L 72.996094 57.75 Z M 80.640625 55.386719 "/>
</g>
<mask id="mask6">
  <g filter="url(#alpha)">
<rect x="0" y="0" width="16" height="16" style="fill:rgb(0%,0%,0%);fill-opacity:0.8;stroke:none;"/>
  </g>
</mask>
<clipPath id="clip7">
  <rect x="0" y="0" width="192" height="152"/>
</clipPath>
<g id="surface6309" clip-path="url(#clip7)">
<path style=" stroke:none;fill-rule:nonzero;fill:rgb(87.058824%,86.666667%,85.490197%);fill-opacity:1;" d="M 80.640625 52.386719 L 81.824219 56.210938 L 100 112 L 100 120 L 96 113 L 76.820312 53.570312 Z M 80.640625 52.386719 "/>
</g>
<mask id="mask7">
  <g filter="url(#alpha)">
<rect x="0" y="0" width="16" height="16" style="fill:rgb(0%,0%,0%);fill-opacity:0.05;stroke:none;"/>
  </g>
</mask>
<clipPath id="clip8">
  <rect x="0" y="0" width="192" height="152"/>
</clipPath>
<g id="surface6312" clip-path="url(#clip8)">
<path style=" stroke:none;fill-rule:evenodd;fill:rgb(0%,0%,0%);fill-opacity:1;" d="M 44 120.160156 L 48 113 L 52 116 Z M 44 120.160156 "/>
</g>
<mask id="mask8">
  <g filter="url(#alpha)">
<rect x="0" y="0" width="16" height="16" style="fill:rgb(0%,0%,0%);fill-opacity:0.05;stroke:none;"/>
  </g>
</mask>
<clipPath id="clip9">
  <rect x="0" y="0" width="192" height="152"/>
</clipPath>
<g id="surface6315" clip-path="url(#clip9)">
<path style=" stroke:none;fill-rule:evenodd;fill:rgb(0%,0%,0%);fill-opacity:1;" d="M 100 120.160156 L 96 113 L 92 116 Z M 100 120.160156 "/>
</g>
<mask id="mask9">
  <g filter="url(#alpha)">
<rect x="0" y="0" width="16" height="16" style="fill:rgb(0%,0%,0%);fill-opacity:0.05;stroke:none;"/>
  </g>
</mask>
<clipPath id="clip10">
  <rect x="0" y="0" width="192" height="152"/>
</clipPath>
<g id="surface6318" clip-path="url(#clip10)">
<path style=" stroke:none;fill-rule:evenodd;fill:rgb(0%,0%,0%);fill-opacity:1;" d="M 44 120.160156 L 48 113 L 44 112 Z M 44 120.160156 "/>
</g>
<mask id="mask10">
  <g filter="url(#alpha)">
<rect x="0" y="0" width="16" height="16" style="fill:rgb(0%,0%,0%);fill-opacity:0.05;stroke:none;"/>
  </g>
</mask>
<clipPath id="clip11">
  <rect x="0" y="0" width="192" height="152"/>
</clipPath>
<g id="surface6321" clip-path="url(#clip11)">
<path style=" stroke:none;fill-rule:evenodd;fill:rgb(0%,0%,0%);fill-opacity:1;" d="M 100 120.078125 L 96 112.921875 L 100 111.921875 Z M 100 120.078125 "/>
</g>
<mask id="mask11">
  <g filter="url(#alpha)">
<rect x="0" y="0" width="16" height="16" style="fill:rgb(0%,0%,0%);fill-opacity:0.2;stroke:none;"/>
  </g>
</mask>
<clipPath id="clip12">
  <rect x="0" y="0" width="192" height="152"/>
</clipPath>
<g id="surface6324" clip-path="url(#clip12)">
<path style=" stroke:none;fill-rule:nonzero;fill:rgb(0%,0%,0%);fill-opacity:1;" d="M 68 84 L 68 90 C 68 91.109375 68.890625 92 70 92 L 74 92 C 75.109375 92 76 91.109375 76 90 L 76 84 Z M 68 84 "/>
</g>
<mask id="mask12">
  <g filter="url(#alpha)">
<rect x="0" y="0" width="16" height="16" style="fill:rgb(0%,0%,0%);fill-opacity:0.1;stroke:none;"/>
  </g>
</mask>
<clipPath id="clip13">
  <rect x="0" y="0" width="192" height="152"/>
</clipPath>
<g id="surface6327" clip-path="url(#clip13)">
<path style=" stroke:none;fill-rule:nonzero;fill:rgb(100%,100%,100%);fill-opacity:1;" d="M 68 82 L 68 76 C 68 74.890625 68.890625 74 70 74 L 74 74 C 75.109375 74 76 74.890625 76 76 L 76 82 Z M 68 82 "/>
</g>
</defs>
<g id="surface6236">
<use xlink:href="#surface6291" transform="matrix(1,0,0,1,-168,-16)" mask="url(#mask0)"/>
<use xlink:href="#surface6294" transform="matrix(1,0,0,1,-168,-16)" mask="url(#mask1)"/>
<use xlink:href="#surface6297" transform="matrix(1,0,0,1,-168,-16)" mask="url(#mask2)"/>
<use xlink:href="#surface6300" transform="matrix(1,0,0,1,-168,-16)" mask="url(#mask3)"/>
<use xlink:href="#surface6303" transform="matrix(1,0,0,1,-168,-16)" mask="url(#mask4)"/>
<use xlink:href="#surface6306" transform="matrix(1,0,0,1,-168,-16)" mask="url(#mask5)"/>
<use xlink:href="#surface6309" transform="matrix(1,0,0,1,-168,-16)" mask="url(#mask6)"/>
<use xlink:href="#surface6312" transform="matrix(1,0,0,1,-168,-16)" mask="url(#mask7)"/>
<use xlink:href="#surface6315" transform="matrix(1,0,0,1,-168,-16)" mask="url(#mask8)"/>
<use xlink:href="#surface6318" transform="matrix(1,0,0,1,-168,-16)" mask="url(#mask9)"/>
<use xlink:href="#surface6321" transform="matrix(1,0,0,1,-168,-16)" mask="url(#mask10)"/>
<use xlink:href="#surface6324" transform="matrix(1,0,0,1,-168,-16)" mask="url(#mask11)"/>
<use xlink:href="#surface6327" transform="matrix(1,0,0,1,-168,-16)" mask="url(#mask12)"/>
<path style=" stroke:none;fill-rule:nonzero;fill:rgb(14.117648%,12.156863%,19.215687%);fill-opacity:1;" d="M 7 0 L 9 0 L 9 2 L 8 3 L 7 2 Z M 7 0 "/>
<path style=" stroke:none;fill-rule:nonzero;fill:rgb(14.117648%,12.156863%,19.215687%);fill-opacity:1;" d="M 8 2 C 6.894531 2 6 2.894531 6 4 C 6 5.105469 6.894531 6 8 6 C 9.105469 6 10 5.105469 10 4 C 10 2.894531 9.105469 2 8 2 Z M 8 3 C 8.550781 3 9 3.449219 9 4 C 9 4.550781 8.550781 5 8 5 C 7.449219 5 7 4.550781 7 4 C 7 3.449219 7.449219 3 8 3 Z M 8 3 "/>
<path style=" stroke:none;fill-rule:nonzero;fill:rgb(14.117648%,12.156863%,19.215687%);fill-opacity:1;" d="M 4 12 L 5 12 L 5 13 L 4 13 Z M 4 12 "/>
<path style=" stroke:none;fill-rule:nonzero;fill:rgb(14.117648%,12.156863%,19.215687%);fill-opacity:1;" d="M 11 12 L 12 12 L 12 13 L 11 13 Z M 11 12 "/>
<path style=" stroke:none;fill-rule:nonzero;fill:rgb(14.117648%,12.156863%,19.215687%);fill-opacity:1;" d="M 3 9 L 13 9 L 13 10 L 3 10 Z M 3 9 "/>
<path style=" stroke:none;fill-rule:evenodd;fill:rgb(14.117648%,12.156863%,19.215687%);fill-opacity:1;" d="M 6.367188 4.734375 L 6.050781 5.683594 L 5.023438 8.757812 L 4.710938 9.707031 L 6.605469 10.339844 L 6.925781 9.390625 L 7.949219 6.316406 L 8.265625 5.367188 Z M 6.367188 4.734375 "/>
<path style=" stroke:none;fill-rule:evenodd;fill:rgb(14.117648%,12.156863%,19.215687%);fill-opacity:1;" d="M 9.632812 4.734375 L 7.734375 5.367188 L 9.367188 10.265625 L 11.265625 9.632812 Z M 9.632812 4.734375 "/>
<path style=" stroke:none;fill-rule:evenodd;fill:rgb(14.117648%,12.156863%,19.215687%);fill-opacity:1;" d="M 5.988281 8.0625 C 5.546875 8.058594 5.15625 8.339844 5.023438 8.757812 L 4.050781 11.683594 C 3.875 12.207031 4.160156 12.773438 4.683594 12.949219 C 5.207031 13.125 5.773438 12.839844 5.949219 12.316406 L 6.925781 9.390625 C 7.03125 9.085938 6.984375 8.75 6.796875 8.484375 C 6.609375 8.21875 6.308594 8.0625 5.988281 8.0625 Z M 5.988281 8.0625 "/>
<path style=" stroke:none;fill-rule:evenodd;fill:rgb(14.117648%,12.156863%,19.215687%);fill-opacity:1;" d="M 9.957031 7.988281 C 9.640625 7.996094 9.347656 8.160156 9.167969 8.421875 C 8.988281 8.683594 8.945312 9.015625 9.050781 9.316406 L 10.050781 12.316406 C 10.226562 12.839844 10.792969 13.125 11.316406 12.949219 C 11.839844 12.773438 12.125 12.207031 11.949219 11.683594 L 10.949219 8.683594 C 10.8125 8.253906 10.410156 7.96875 9.957031 7.988281 Z M 9.957031 7.988281 "/>
<path style=" stroke:none;fill-rule:nonzero;fill:rgb(14.117648%,12.156863%,19.215687%);fill-opacity:1;" d="M 2 4 C 0.910156 4 0 4.910156 0 6 L 0 14 C 0 15.089844 0.910156 16 2 16 L 14 16 C 15.089844 16 16 15.089844 16 14 L 16 6 C 16 4.910156 15.089844 4 14 4 L 11 4 L 11 6 L 14 6 L 14 14 L 2 14 L 2 6 L 5 6 L 5 4 Z M 2 4 "/>
</g>
</svg>
