<?xml version="1.0" encoding="UTF-8" standalone="no"?>
<!-- Created with Inkscape (http://www.inkscape.org/) -->

<svg
   xmlns:dc="http://purl.org/dc/elements/1.1/"
   xmlns:cc="http://creativecommons.org/ns#"
   xmlns:rdf="http://www.w3.org/1999/02/22-rdf-syntax-ns#"
   xmlns:svg="http://www.w3.org/2000/svg"
   xmlns="http://www.w3.org/2000/svg"
   xmlns:sodipodi="http://sodipodi.sourceforge.net/DTD/sodipodi-0.dtd"
   xmlns:inkscape="http://www.inkscape.org/namespaces/inkscape"
   sodipodi:docname="org.gnome.Palette-symbolic.svg"
   height="16"
   id="svg7384"
   inkscape:version="0.92.4 (5da689c313, 2019-01-14)"
   version="1.1"
   width="16">
  <metadata
     id="metadata90">
    <rdf:RDF>
      <cc:Work
         rdf:about="">
        <dc:format>image/svg+xml</dc:format>
        <dc:type
           rdf:resource="http://purl.org/dc/dcmitype/StillImage" />
        <dc:title>Gnome Symbolic Icon Theme</dc:title>
      </cc:Work>
    </rdf:RDF>
  </metadata>
  <sodipodi:namedview
     inkscape:bbox-nodes="true"
     inkscape:bbox-paths="true"
     bordercolor="#666666"
     borderopacity="1"
     inkscape:current-layer="layer11"
     inkscape:cx="36.666062"
     inkscape:cy="-8.8982502"
     gridtolerance="10"
     inkscape:guide-bbox="true"
     guidetolerance="10"
     id="namedview88"
     inkscape:object-nodes="false"
     inkscape:object-paths="false"
     objecttolerance="10"
     pagecolor="#e3e4e3"
     inkscape:pageopacity="1"
     inkscape:pageshadow="2"
     showborder="true"
     showgrid="true"
     showguides="true"
     inkscape:snap-bbox="true"
     inkscape:snap-bbox-midpoints="true"
     inkscape:snap-global="true"
     inkscape:snap-grids="true"
     inkscape:snap-nodes="true"
     inkscape:snap-others="true"
     inkscape:snap-to-guides="true"
     inkscape:window-height="1016"
     inkscape:window-maximized="1"
     inkscape:window-width="1920"
     inkscape:window-x="1600"
     inkscape:window-y="27"
     inkscape:zoom="2.8284271"
     inkscape:pagecheckerboard="false"
     inkscape:snap-page="true"
     inkscape:snap-bbox-edge-midpoints="true">
    <inkscape:grid
       empspacing="2"
       enabled="true"
       id="grid4866"
       originx="39.9998"
       originy="650"
       snapvisiblegridlinesonly="true"
       spacingx="1"
       spacingy="1"
       type="xygrid"
       visible="true" />
  </sodipodi:namedview>
  <title
     id="title9167">Gnome Symbolic Icon Theme</title>
  <defs
     id="defs7386" />
  <g
     inkscape:groupmode="layer"
     id="layer11"
     inkscape:label="apps"
     transform="translate(-201.0004,-867)">
    <g
       transform="translate(41.0002,695)"
       style="display:inline;fill:#241f31;fill-opacity:1;enable-background:new"
       id="g1145">
      <path
         sodipodi:nodetypes="ccccccccccc"
         inkscape:connector-curvature="0"
         id="rect1088"
         transform="translate(0,172)"
         d="m 172.65625,9 -5.81836,5.816406 -0.01,0.0098 c -3.6e-4,3.61e-4 3.7e-4,0.0016 0,0.002 -0.008,0.0077 -0.0176,0.0119 -0.0254,0.01953 -0.036,0.03406 -0.0745,0.0654 -0.11523,0.09375 -0.005,0.0039 -0.009,0.0079 -0.0137,0.01172 -0.0184,0.01661 -0.038,0.03067 -0.0566,0.04687 H 176 V 9 Z"
         style="opacity:1;vector-effect:none;fill:#241f31;fill-opacity:1;stroke:none;stroke-width:1.99999988;stroke-linecap:round;stroke-linejoin:round;stroke-miterlimit:4;stroke-dasharray:none;stroke-dashoffset:0;stroke-opacity:1" />
      <path
         sodipodi:nodetypes="cccccc"
         inkscape:connector-curvature="0"
         id="rect1086"
         transform="translate(0,172)"
         d="M 170.36523,1.3925781 168,3.7578125 V 12 c -9.1e-4,0.09738 -0.0161,0.194103 -0.0449,0.287109 l 6.65234,-6.6523434 z"
         style="opacity:1;vector-effect:none;fill:#241f31;fill-opacity:1;stroke:none;stroke-width:1.99999988;stroke-linecap:round;stroke-linejoin:round;stroke-miterlimit:4;stroke-dasharray:none;stroke-dashoffset:0;stroke-opacity:1" />
      <path
         inkscape:connector-curvature="0"
         id="rect1044"
         transform="translate(0,172)"
         d="M 161,0 V 11.957031 12 h 0.002 a 3,3 0 0 0 0.87696,2.121094 3,3 0 0 0 4.24218,0 A 3,3 0 0 0 166.99805,12 H 167 V 0 Z m 3.01367,11 a 1,1 0 0 1 0.69336,0.292969 1,1 0 0 1 0,1.414062 1,1 0 0 1 -1.41406,0 1,1 0 0 1 0,-1.414062 A 1,1 0 0 1 164.01367,11 Z"
         style="opacity:1;vector-effect:none;fill:#241f31;fill-opacity:1;stroke:none;stroke-width:1.99999988;stroke-linecap:round;stroke-linejoin:round;stroke-miterlimit:4;stroke-dasharray:none;stroke-dashoffset:0;stroke-opacity:1" />
    </g>
  </g>
</svg>
