<?xml version="1.0" encoding="UTF-8"?>
<svg xmlns="http://www.w3.org/2000/svg" xmlns:xlink="http://www.w3.org/1999/xlink" width="16px" height="16px" viewBox="0 0 16 16" version="1.1">
<g id="surface6236">
<path d="M 7 0 L 9 0 L 9 2 L 8 3 L 7 2 Z M 7 0 "/>
<path d="M 8 2 C 6.894531 2 6 2.894531 6 4 C 6 5.105469 6.894531 6 8 6 C 9.105469 6 10 5.105469 10 4 C 10 2.894531 9.105469 2 8 2 Z M 8 3 C 8.550781 3 9 3.449219 9 4 C 9 4.550781 8.550781 5 8 5 C 7.449219 5 7 4.550781 7 4 C 7 3.449219 7.449219 3 8 3 Z M 8 3 "/>
<path d="M 4 12 L 5 12 L 5 13 L 4 13 Z M 4 12 "/>
<path d="M 11 12 L 12 12 L 12 13 L 11 13 Z M 11 12 "/>
<path d="M 3 9 L 13 9 L 13 10 L 3 10 Z M 3 9 "/>
<path d="M 6.367188 4.734375 L 6.050781 5.683594 L 5.023438 8.757812 L 4.710938 9.707031 L 6.605469 10.339844 L 6.925781 9.390625 L 7.949219 6.316406 L 8.265625 5.367188 Z M 6.367188 4.734375 "/>
<path d="M 9.632812 4.734375 L 7.734375 5.367188 L 9.367188 10.265625 L 11.265625 9.632812 Z M 9.632812 4.734375 "/>
<path d="M 5.988281 8.0625 C 5.546875 8.058594 5.15625 8.339844 5.023438 8.757812 L 4.050781 11.683594 C 3.875 12.207031 4.160156 12.773438 4.683594 12.949219 C 5.207031 13.125 5.773438 12.839844 5.949219 12.316406 L 6.925781 9.390625 C 7.03125 9.085938 6.984375 8.75 6.796875 8.484375 C 6.609375 8.21875 6.308594 8.0625 5.988281 8.0625 Z M 5.988281 8.0625 "/>
<path d="M 9.957031 7.988281 C 9.640625 7.996094 9.347656 8.160156 9.167969 8.421875 C 8.988281 8.683594 8.945312 9.015625 9.050781 9.316406 L 10.050781 12.316406 C 10.226562 12.839844 10.792969 13.125 11.316406 12.949219 C 11.839844 12.773438 12.125 12.207031 11.949219 11.683594 L 10.949219 8.683594 C 10.8125 8.253906 10.410156 7.96875 9.957031 7.988281 Z M 9.957031 7.988281 "/>
<path d="M 2 4 C 0.910156 4 0 4.910156 0 6 L 0 14 C 0 15.089844 0.910156 16 2 16 L 14 16 C 15.089844 16 16 15.089844 16 14 L 16 6 C 16 4.910156 15.089844 4 14 4 L 11 4 L 11 6 L 14 6 L 14 14 L 2 14 L 2 6 L 5 6 L 5 4 Z M 2 4 "/>
</g>
</svg>
