<?xml version="1.0" encoding="UTF-8"?>
<svg height="128px" viewBox="0 0 128 128" width="128px" xmlns="http://www.w3.org/2000/svg" xmlns:xlink="http://www.w3.org/1999/xlink">
    <linearGradient id="a" gradientUnits="userSpaceOnUse">
        <stop offset="0" stop-color="#c0bfbc"/>
        <stop offset="0.857143" stop-color="#c0bfbc"/>
        <stop offset="0.928571" stop-color="#deddda"/>
        <stop offset="1" stop-color="#c0bfbc"/>
    </linearGradient>
    <linearGradient id="b" x1="64" x2="120" xlink:href="#a" y1="80" y2="80"/>
    <linearGradient id="c" gradientTransform="matrix(-1 0 0 1 128.000006 -166)" x1="64" x2="120" xlink:href="#a" y1="246" y2="246"/>
    <filter id="d" height="100%" width="100%" x="0%" y="0%">
        <feColorMatrix in="SourceGraphic" type="matrix" values="0 0 0 0 1 0 0 0 0 1 0 0 0 0 1 0 0 0 1 0"/>
    </filter>
    <mask id="e">
        <g filter="url(#d)">
            <rect fill-opacity="0.1" height="128" width="128"/>
        </g>
    </mask>
    <clipPath id="f">
        <rect height="152" width="192"/>
    </clipPath>
    <linearGradient id="g" gradientTransform="matrix(-0.25 0 0 0.25 168.000015 31.000015)" gradientUnits="userSpaceOnUse" x1="320" x2="416" y1="116" y2="116">
        <stop offset="0" stop-color="#f6f5f4"/>
        <stop offset="0.5" stop-color="#ffffff"/>
        <stop offset="1" stop-color="#e0dedb"/>
    </linearGradient>
    <linearGradient id="h" gradientUnits="userSpaceOnUse" x1="40.00001" x2="64.00001" y1="60.000015" y2="60.000015">
        <stop offset="0" stop-color="#f6f5f4"/>
        <stop offset="0.5" stop-color="#f6f5f4"/>
        <stop offset="1" stop-color="#cccbc8"/>
    </linearGradient>
    <linearGradient id="i" gradientUnits="userSpaceOnUse" x1="47.228833" x2="34.426034" y1="47.799404" y2="0.018703">
        <stop offset="0" stop-color="#00cccc"/>
        <stop offset="1" stop-color="#32e5d2"/>
    </linearGradient>
    <path d="m 120 94.355469 v 6.644531 c 0 4.433594 -3.566406 8 -8 8 h -22 c -9.683594 0 -18.023438 5.738281 -21.816406 14 h -8.367188 c -3.792968 -8.261719 -12.132812 -14 -21.816406 -14 h -22 c -4.433594 0 -8 -3.566406 -8 -8 v -6.644531 z m 0 0" fill="#1daaaa"/>
    <path d="m 66.328125 54.019531 c -0.160156 0.988281 -0.273437 1.980469 -0.328125 2.980469 h -2 v 63 h 4.183594 c 3.792968 -8.261719 12.132812 -14 21.816406 -14 h 22 c 4.433594 0 8 -3.566406 8 -8 v -35.644531 c 0 -4.433594 -3.566406 -8 -8 -8 z m 0 0" fill="url(#b)"/>
    <path d="m 61.675781 54.019531 c 0.15625 0.988281 0.269531 1.980469 0.324219 2.980469 h 2 v 63 h -4.183594 c -3.792968 -8.261719 -12.132812 -14 -21.816406 -14 h -22 c -4.433594 0 -8 -3.566406 -8 -8 v -35.644531 c 0 -4.433594 3.566406 -8 8 -8 z m 0 0" fill="url(#c)"/>
    <g clip-path="url(#f)" mask="url(#e)" transform="matrix(1 0 0 1 -8 -16)">
        <path d="m 128 107.65625 c -0.082031 4.089844 -3.378906 7.34375 -7.492188 7.34375 h -0.5 v 1 h 0.5 c 3.246094 0 6.058594 -1.8125 7.492188 -4.480469 z m -32 7.34375 l 24 1 v -1 z m 0 0"/>
        <path d="m 128 110.65625 c -0.082031 4.089844 -3.378906 7.34375 -7.492188 7.34375 h -0.5 v 1 h 0.5 c 3.222657 0 6.023438 -1.789062 7.464844 -4.425781 c 0.011719 -0.191407 0.027344 -0.382813 0.027344 -0.574219 z m -26 7.34375 l 18 1 v -1 z m 0 0"/>
    </g>
    <path d="m 112 21 c 4.433594 0 8 3.566406 8 8 v 59 c 0 4.433594 -3.566406 8 -8 8 h -24 c -13.253906 0 -24 10.746094 -24 24 v -73 c 0 -13.253906 10.746094 -26 24 -26 z m 0 0" fill="url(#g)"/>
    <path d="m 16 21 c -4.433594 0 -8 3.566406 -8 8 v 59 c 0 4.433594 3.566406 8 8 8 h 24 c 13.253906 0 24 10.746094 24 24 v -73 c 0 -13.253906 -10.746094 -26 -24 -26 z m 0 0" fill="url(#h)"/>
    <path d="m 102 32 v 6 h -12 c -4.375 0.183594 -8.464844 1.296875 -12 3.28125 v -5.550781 c 3.53125 -2.335938 7.625 -3.730469 12 -3.730469 z m 0 0" fill="#00cccc"/>
    <g fill="#deddda">
        <path d="m 108 44 v 4 h -18 c -4.375 0.183594 -8.464844 1.296875 -12 3.28125 v -3.550781 c 3.53125 -2.335938 7.625 -3.730469 12 -3.730469 z m 0 0"/>
        <path d="m 108 52 v 4 h -18 c -4.375 0.183594 -8.464844 1.296875 -12 3.28125 v -3.550781 c 3.53125 -2.335938 7.625 -3.730469 12 -3.730469 z m 0 0"/>
        <path d="m 108 60 v 4 h -18 c -4.375 0.183594 -8.464844 1.296875 -12 3.28125 v -3.550781 c 3.53125 -2.335938 7.625 -3.730469 12 -3.730469 z m 0 0"/>
        <path d="m 36 76 h -16 v 4 h 16 z m 0 0"/>
        <path d="m 20 44 v 4 h 20 c 3.574219 0.148438 6.953125 0.929688 10 2.292969 v -3.734375 c -3.046875 -1.617188 -6.425781 -2.558594 -10 -2.558594 z m 0 0"/>
        <path d="m 20 52 v 4 h 20 c 3.574219 0.148438 6.953125 0.929688 10 2.292969 v -3.734375 c -3.046875 -1.617188 -6.425781 -2.558594 -10 -2.558594 z m 0 0"/>
        <path d="m 20 60 v 4 h 20 c 3.574219 0.148438 6.953125 0.929688 10 2.292969 v -3.734375 c -3.046875 -1.617188 -6.425781 -2.558594 -10 -2.558594 z m 0 0"/>
        <path d="m 20 36 v 4 h 20 c 3.574219 0.148438 6.953125 0.929688 10 2.292969 v -3.734375 c -3.046875 -1.617188 -6.425781 -2.558594 -10 -2.558594 z m 0 0"/>
        <path d="m 20 68 v 4 h 20 c 3.574219 0.148438 6.953125 0.929688 10 2.292969 v -3.734375 c -3.046875 -1.617188 -6.425781 -2.558594 -10 -2.558594 z m 0 0"/>
        <path d="m 100 68 v 4 h -10 c -4.375 0.183594 -8.464844 1.296875 -12 3.28125 v -3.550781 c 3.53125 -2.335938 7.625 -3.730469 12 -3.730469 z m 0 0"/>
    </g>
    <path d="m 34.433594 0 s -8.230469 20.4375 -8.207032 31.1875 c 0.015626 8 1.101563 17.027344 6.210938 23.183594 c 3.925781 4.726562 16.628906 7.964844 16.628906 7.964844 l 3.863282 -1.035157 s 9.378906 -9.15625 10.417968 -15.210937 c 1.347656 -7.886719 -2.226562 -16.246094 -6.210937 -23.183594 c -5.355469 -9.324219 -22.703125 -22.90625 -22.703125 -22.90625 z m 0 0" fill="url(#i)"/>
    <path d="m 53.214844 77.820312 c -10.773438 -40.203124 -10.488282 -44.691406 -15.757813 -66.816406 c 6.53125 21.703125 8.847657 25.578125 19.621094 65.78125 z m 0 0" fill="#1daaaa"/>
    <path d="m 42.089844 30.066406 c 3.617187 -6.261718 4.914062 -7.515625 6.195312 -9.597656 c -1.160156 2.152344 -1.636718 3.878906 -5.253906 10.140625 z m 0 0" fill="#1daaaa"/>
    <path d="m 44.597656 39.785156 c 5.019532 -8.695312 6.820313 -10.4375 8.597656 -13.332031 c -1.605468 2.992187 -2.269531 5.390625 -7.292968 14.085937 z m 0 0" fill="#1daaaa"/>
    <path d="m 47.359375 50.210938 c 5.3125 -9.199219 7.214844 -11.042969 9.097656 -14.101563 c -1.703125 3.164063 -2.40625 5.699219 -7.714843 14.898437 z m 0 0" fill="#1daaaa"/>
    <path d="m 42.835938 29.867188 c -6.265626 -3.613282 -8.011719 -4.050782 -10.164063 -5.214844 c 2.078125 1.285156 3.355469 2.542968 9.617187 6.15625 z m 0 0" fill="#1daaaa"/>
    <path d="m 45.523438 39.539062 c -8.695313 -5.023437 -11.125 -5.632812 -14.113282 -7.246093 c 2.890625 1.785156 4.660156 3.53125 13.359375 8.550781 z m 0 0" fill="#1daaaa"/>
    <path d="m 48.34375 49.945312 c -9.199219 -5.3125 -11.769531 -5.957031 -14.929688 -7.664062 c 3.054688 1.890625 4.933594 3.734375 14.132813 9.046875 z m 0 0" fill="#1daaaa"/>
</svg>
