<?xml version="1.0" encoding="UTF-8"?>
<svg height="128px" viewBox="0 0 128 128" width="128px" xmlns="http://www.w3.org/2000/svg" xmlns:xlink="http://www.w3.org/1999/xlink">
    <filter id="a" height="100%" width="100%" x="0%" y="0%">
        <feColorMatrix in="SourceGraphic" type="matrix" values="0 0 0 0 1 0 0 0 0 1 0 0 0 0 1 0 0 0 1 0"/>
    </filter>
    <mask id="b">
        <g filter="url(#a)">
            <rect fill-opacity="0.15" height="128" width="128"/>
        </g>
    </mask>
    <linearGradient id="c" gradientUnits="userSpaceOnUse">
        <stop offset="0"/>
        <stop offset="1" stop-opacity="0"/>
    </linearGradient>
    <linearGradient id="d" gradientTransform="matrix(2.62503 0 0 1 -137.502762 -155.000034)" x1="84.000092" x2="92" xlink:href="#c" y1="229.999985" y2="229.999985"/>
    <clipPath id="e">
        <rect height="152" width="192"/>
    </clipPath>
    <mask id="f">
        <g filter="url(#a)">
            <rect fill-opacity="0.15" height="128" width="128"/>
        </g>
    </mask>
    <linearGradient id="g" gradientTransform="matrix(2.62503 0 0 1 -137.502762 -155.00003)" x1="84.000092" x2="92" xlink:href="#c" y1="229.999985" y2="229.999985"/>
    <clipPath id="h">
        <rect height="152" width="192"/>
    </clipPath>
    <linearGradient id="i" gradientUnits="userSpaceOnUse" x1="100.000092" x2="108.000183" y1="63.899414" y2="63.899414">
        <stop offset="0" stop-opacity="0"/>
        <stop offset="1" stop-opacity="0.14902"/>
    </linearGradient>
    <linearGradient id="j" gradientUnits="userSpaceOnUse" x1="19.999838" x2="32.000002" y1="57.937502" y2="57.937502">
        <stop offset="0" stop-opacity="0.14902"/>
        <stop offset="1" stop-opacity="0"/>
    </linearGradient>
    <mask id="k">
        <g filter="url(#a)">
            <rect fill-opacity="0.15" height="128" width="128"/>
        </g>
    </mask>
    <clipPath id="l">
        <rect height="152" width="192"/>
    </clipPath>
    <linearGradient id="m" gradientUnits="userSpaceOnUse" x1="20" x2="108" y1="60" y2="60">
        <stop offset="0" stop-color="#e66100"/>
        <stop offset="0.113636" stop-color="#ffa348"/>
        <stop offset="0.227274" stop-color="#ff7800"/>
        <stop offset="0.772727" stop-color="#ff7800"/>
        <stop offset="0.886364" stop-color="#ffa348"/>
        <stop offset="1" stop-color="#c64600"/>
    </linearGradient>
    <path d="m 40 66 c -2.910156 0 -5.441406 1.601562 -6.839844 4 h -13.160156 v 38 c 0 2.070312 0.535156 4.144531 1.609375 6 c 2.140625 3.714844 6.101563 6 10.390625 6 h 68 c 0.273438 0 0.546875 -0.015625 0.820312 -0.042969 c 2.550782 -0.261719 4.824219 -1.734375 6.109376 -3.957031 c 0.734374 -1.277344 1.105468 -2.730469 1.066406 -4.203125 c 0 -0.03125 0.003906 -0.0625 0.003906 -0.09375 v -37.40625 c 0 -4.597656 -3.566406 -8.296875 -8 -8.296875 z m 0 0" fill="#deddda"/>
    <path d="m 100 102 h -16 v 8 h 16 z m 0 0" fill="#c0bfbc"/>
    <path d="m 92 22 h -46 c -4.417969 0 -8 3.582031 -8 8 v 72 c 0 4.417969 3.582031 8 8 8 h 46 c 4.417969 0 8 -3.582031 8 -8 v -72 c 0 -4.417969 -3.582031 -8 -8 -8 z m 0 0" fill="#c0bfbc"/>
    <path d="m 92 16 h -46 c -4.417969 0 -8 3.582031 -8 8 v 72 c 0 4.417969 3.582031 8 8 8 h 46 c 4.417969 0 8 -3.582031 8 -8 v -72 c 0 -4.417969 -3.582031 -8 -8 -8 z m 0 0" fill="#f6f5f4"/>
    <g clip-path="url(#e)" mask="url(#b)" transform="matrix(1 0 0 1 -8 -16)">
        <path d="m 83 32 h 21 v 86 h -21 z m 0 0" fill="url(#d)"/>
    </g>
    <path d="m 32 8.167969 c -4.289062 -0.003907 -8.25 2.285156 -10.390625 6 c -1.054687 1.824219 -1.609375 3.890625 -1.609375 6 v 0.125 v 87.707031 c 0.027344 -2.050781 0.582031 -4.058594 1.609375 -5.832031 c 2.140625 -3.714844 6.101563 -6.003907 10.390625 -6 z m 0 0" fill="#f6f5f4"/>
    <path d="m 31.960938 96 c -4.273438 0.015625 -8.21875 2.300781 -10.351563 6 c -2.144531 3.710938 -2.144531 8.289062 0 12 c 2.140625 3.714844 6.101563 6 10.390625 6 v -6 c -3.3125 0 -6 -2.6875 -6 -6 s 2.6875 -6 6 -6 v -6 c -0.011719 0 -0.027344 0 -0.039062 0 z m 0 0" fill="#c0bfbc"/>
    <path d="m 32 120 h 68 v -6 h -68 z m 0 0" fill="#c0bfbc"/>
    <path d="m 100 104 v 6 c 0.714844 0 1.375 0.382812 1.734375 1 c 0.355469 0.617188 0.355469 1.382812 0 2 c -0.359375 0.617188 -1.019531 1 -1.734375 1 v 6 c 2.859375 0 5.5 -1.523438 6.929688 -4 c 1.425781 -2.476562 1.425781 -5.523438 0 -8 c -1.429688 -2.476562 -4.070313 -4 -6.929688 -4 z m 0 0" fill="#c0bfbc"/>
    <path d="m 38 100 l 0.070312 0.007812 c 0.492188 3.949219 3.839844 6.992188 7.929688 6.992188 h 54 v 1 h -54 c -4.433594 0 -8 -3.566406 -8 -8 z m 0 0" fill="#9a9996"/>
    <path d="m 84 92 l -0.070312 0.007812 c -0.492188 3.949219 -3.839844 6.992188 -7.929688 6.992188 h -44 v 1 h 44 c 4.433594 0 8 -3.566406 8 -8 z m 0 0" fill="#9a9996"/>
    <path d="m 32 116.5 c -3.035156 0 -5.84375 -1.621093 -7.359375 -4.25 c -1.519531 -2.628906 -1.519531 -5.871093 0 -8.5 c 1.515625 -2.628906 4.324219 -4.25 7.359375 -4.25" fill="none" stroke="#9a9996" stroke-linecap="round" stroke-linejoin="round" stroke-width="0.999997"/>
    <path d="m 32 116.5 h 68" fill="none" stroke="#9a9996"/>
    <path d="m -196.438232 99.086349 c -1.539063 0 -2.960938 -0.859375 -3.730469 -2.25 s -0.769531 -3.109375 0 -4.5 s 2.191406 -2.25 3.730469 -2.25" fill="none" stroke="#9a9996" stroke-linecap="round" stroke-linejoin="round" transform="matrix(-1 0 0 1 -96.438232 17.413651)"/>
    <path d="m 98.019531 64 c 5.515625 0.011719 9.980469 4.484375 9.980469 10 l -0.203125 18 c -0.949219 -4.65625 -5.042969 -8 -9.796875 -8 v -2 z m 0 0" fill="#ff7800"/>
    <path d="m 98.019531 24 c 5.515625 0.011719 9.980469 4.484375 9.980469 10 l -0.203125 12 c -0.949219 -4.65625 -5.042969 -8 -9.796875 -8 v -2 z m 0 0" fill="#ff7800"/>
    <path d="m 98.019531 92 c 5.515625 0.011719 9.980469 4.484375 9.980469 10 h -0.203125 c -0.949219 -4.65625 -5.042969 -8 -9.796875 -8 v -2 z m 0 0" fill="#c0bfbc"/>
    <path d="m 98.019531 88 c 5.515625 0.011719 9.980469 4.484375 9.980469 10 h -0.203125 c -0.949219 -4.65625 -5.042969 -8 -9.796875 -8 v -2 z m 0 0" fill="#c0bfbc"/>
    <path d="m 98.019531 54 c 5.515625 0.011719 9.980469 4.484375 9.980469 10 h -0.203125 c -0.949219 -4.65625 -5.042969 -8 -9.796875 -8 v -2 z m 0 0" fill="#c0bfbc"/>
    <path d="m 98.019531 50 c 5.515625 0.011719 9.980469 4.484375 9.980469 10 h -0.203125 c -0.949219 -4.65625 -5.042969 -8 -9.796875 -8 v -2 z m 0 0" fill="#c0bfbc"/>
    <path d="m 98.019531 46 c 5.515625 0.011719 9.980469 4.484375 9.980469 10 h -0.203125 c -0.949219 -4.65625 -5.042969 -8 -9.796875 -8 v -2 z m 0 0" fill="#c0bfbc"/>
    <path d="m 98.019531 42 c 5.515625 0.011719 9.980469 4.484375 9.980469 10 h -0.203125 c -0.949219 -4.65625 -5.042969 -8 -9.796875 -8 v -2 z m 0 0" fill="#c0bfbc"/>
    <path d="m 40 66 c -2.910156 0 -5.441406 1.601562 -6.839844 4 h -13.160156 v 38 c 0 2.070312 0.535156 4.144531 1.609375 6 c 2.140625 3.714844 6.101563 6 10.390625 6 h 68 c 0.273438 0 0.546875 -0.015625 0.820312 -0.042969 c 2.550782 -0.261719 4.824219 -1.734375 6.109376 -3.957031 c 0.734374 -1.277344 1.105468 -2.730469 1.066406 -4.203125 c 0 -0.03125 0.003906 -0.0625 0.003906 -0.09375 v -37.40625 c 0 -4.597656 -3.566406 -8.296875 -8 -8.296875 z m 0 0" fill="#f6f5f4"/>
    <path d="m 100 16 v 88 c 2.859375 0 5.5 1.523438 6.929688 4 c 0.664062 1.15625 1.03125 2.464844 1.066406 3.800781 c 0 -0.035156 0.003906 -0.066406 0.003906 -0.097656 v -87.40625 c 0 -4.597656 -3.566406 -8.296875 -8 -8.296875 z m 0 0" fill="#ffffff"/>
    <path d="m 100 102 h -16 v 8 h 16 z m 0 0" fill="#c0bfbc"/>
    <path d="m 92 22 h -46 c -4.417969 0 -8 3.582031 -8 8 v 72 c 0 4.417969 3.582031 8 8 8 h 46 c 4.417969 0 8 -3.582031 8 -8 v -72 c 0 -4.417969 -3.582031 -8 -8 -8 z m 0 0" fill="#c0bfbc"/>
    <path d="m 100 16 h -16 v 8 h 16 z m 0 0" fill="#ffffff"/>
    <path d="m 100 96 h -16 v 8 h 16 z m 0 0" fill="#ffffff"/>
    <path d="m 92 16 h -46 c -4.417969 0 -8 3.582031 -8 8 v 72 c 0 4.417969 3.582031 8 8 8 h 46 c 4.417969 0 8 -3.582031 8 -8 v -72 c 0 -4.417969 -3.582031 -8 -8 -8 z m 0 0" fill="#ffffff"/>
    <path d="m 100 16 h -16 v 8 h 16 z m 0 0" fill="#ffffff"/>
    <path d="m 100 20 c 2.859375 0 5.5 1.523438 6.925781 4 c 0.703125 1.214844 1.074219 2.597656 1.074219 4 v 24 c 0 -1.402344 -0.371094 -2.785156 -1.074219 -4 c -1.425781 -2.476562 -4.066406 -4 -6.925781 -4 z m 0 0" fill="#c0bfbc"/>
    <path d="m 100 48 v 24 h -11.957031 v -24 z m 0 0" fill="#deddda"/>
    <path d="m 32 8.167969 c -4.289062 -0.003907 -8.25 2.285156 -10.390625 6 c -1.054687 1.824219 -1.609375 3.890625 -1.609375 6 v 0.125 v 87.707031 c 0.027344 -2.050781 0.582031 -4.058594 1.609375 -5.832031 c 2.140625 -3.714844 6.101563 -6.003907 10.390625 -6 z m 0 0" fill="#ffffff"/>
    <path d="m 31.960938 96 c -4.273438 0.015625 -8.21875 2.300781 -10.351563 6 c -2.144531 3.710938 -2.144531 8.289062 0 12 c 2.140625 3.714844 6.101563 6 10.390625 6 v -6 c -3.3125 0 -6 -2.6875 -6 -6 s 2.6875 -6 6 -6 v -6 c -0.011719 0 -0.027344 0 -0.039062 0 z m 0 0" fill="#c0bfbc"/>
    <path d="m 32 120 h 68 v -6 h -68 z m 0 0" fill="#c0bfbc"/>
    <path d="m 100 104 v 6 c 0.714844 0 1.375 0.382812 1.734375 1 c 0.355469 0.617188 0.355469 1.382812 0 2 c -0.359375 0.617188 -1.019531 1 -1.734375 1 v 6 c 2.859375 0 5.5 -1.523438 6.929688 -4 c 1.425781 -2.476562 1.425781 -5.523438 0 -8 c -1.429688 -2.476562 -4.070313 -4 -6.929688 -4 z m 0 0" fill="#c0bfbc"/>
    <path d="m 38 100 l 0.070312 0.007812 c 0.492188 3.949219 3.839844 6.992188 7.929688 6.992188 h 54 v 1 h -54 c -4.433594 0 -8 -3.566406 -8 -8 z m 0 0" fill="#9a9996"/>
    <path d="m 32 116.5 h 68" fill="none" stroke="#9a9996"/>
    <path d="m -100 288.5 c -1.539062 0 -2.960938 -0.859375 -3.730469 -2.25 s -0.769531 -3.109375 0 -4.5 s 2.191407 -2.25 3.730469 -2.25" fill="none" stroke="#9a9996" stroke-linecap="round" stroke-linejoin="round" transform="matrix(-1 0 0 1 0 -172)"/>
    <path d="m 31 94 h 16 v 8 h -16 z m 0 0" fill="#c0bfbc"/>
    <path d="m 43 14 h 37 c 4.417969 0 8 3.582031 8 8 v 72 c 0 4.417969 -3.582031 8 -8 8 h -37 c -4.417969 0 -8 -3.582031 -8 -8 v -72 c 0 -4.417969 3.582031 -8 8 -8 z m 0 0" fill="#c0bfbc"/>
    <path d="m 30.957031 88 h 16 v 8 h -16 z m 0 0" fill="#f6f5f4"/>
    <path d="m 94 20 h -6 v 24 h 6 z m 0 0" fill="#deddda"/>
    <path d="m 98 20 h -6 v 16 h 6 z m 0 0" fill="#deddda"/>
    <path d="m 99.945312 76 h -17.945312 v 24 h 17.945312 z m 0 0" fill="#deddda"/>
    <path d="m 96 96 h -4 v 5.144531 h 4 z m 0 0" fill="#ffffff"/>
    <path d="m 43 8 h 37 c 4.417969 0 8 3.582031 8 8 v 72 c 0 4.417969 -3.582031 8 -8 8 h -37 c -4.417969 0 -8 -3.582031 -8 -8 v -72 c 0 -4.417969 3.582031 -8 8 -8 z m 0 0" fill="#f6f5f4"/>
    <path d="m 40 28 h 36 v 48 h -36 z m 0 0" fill="#ff7800"/>
    <path d="m 56.941406 35.332031 l -6.753906 17.667969 c -0.050781 0.171875 -0.011719 0.351562 0.058594 0.453125 c 0.089844 0.097656 0.171875 0.21875 0.414062 0.238281 l 4.738282 -0.019531 c 0.160156 0 0.300781 0.070313 0.359374 0.222656 c 0.039063 0.128907 0.050782 0.261719 0 0.441407 l -4.105468 15.039062 c -0.03125 0.121094 -0.070313 0.390625 0.210937 0.570312 c 0.179688 0.109376 0.542969 0.050782 0.761719 -0.171874 l 15.472656 -19.503907 c 0.097656 -0.160156 0.109375 -0.441406 0.046875 -0.574219 c -0.058593 -0.128906 -0.1875 -0.308593 -0.488281 -0.339843 l -7.21875 -0.269531 c -0.210938 -0.042969 -0.28125 -0.140626 -0.34375 -0.222657 c -0.078125 -0.121093 -0.097656 -0.289062 -0.019531 -0.472656 l 5.914062 -12.828125 c 0.078125 -0.171875 0.078125 -0.292969 0.03125 -0.382812 c -0.042969 -0.078126 -0.171875 -0.179688 -0.402343 -0.179688 h -8.0625 c -0.109376 0 -0.492188 0.039062 -0.613282 0.332031 z m 0 0" fill="#ffffff"/>
    <path d="m 40 16 h 32 v 4 h -32 z m 0 0" fill="#c0bfbc"/>
    <g clip-path="url(#h)" mask="url(#f)" transform="matrix(1 0 0 1 -8 -16)">
        <path d="m 83 32 h 21 v 86 h -21 z m 0 0" fill="url(#g)"/>
    </g>
    <path d="m 32 94 h 16 v 8 h -16 z m 0 0" fill="#c0bfbc"/>
    <path d="m 43 14 h 37 c 4.417969 0 8 3.582031 8 8 v 72 c 0 4.417969 -3.582031 8 -8 8 h -37 c -4.417969 0 -8 -3.582031 -8 -8 v -72 c 0 -4.417969 3.582031 -8 8 -8 z m 0 0" fill="#c0bfbc"/>
    <path d="m 30.957031 8 h 16 v 8 h -16 z m 0 0" fill="#ffffff"/>
    <path d="m 31.960938 88 h 16 v 8 h -16 z m 0 0" fill="#ffffff"/>
    <path d="m 40 8 h 40 c 4.417969 0 8 3.582031 8 8 v 72 c 0 4.417969 -3.582031 8 -8 8 h -40 c -4.417969 0 -8 -3.582031 -8 -8 v -72 c 0 -4.417969 3.582031 -8 8 -8 z m 0 0" fill="#ffffff"/>
    <path d="m 30.957031 8 h 16 v 8 h -16 z m 0 0" fill="#ffffff"/>
    <path d="m 88 92 l -0.070312 0.007812 c -0.492188 3.949219 -3.839844 6.992188 -7.929688 6.992188 h -48 v 1 h 48 c 4.433594 0 8 -3.566406 8 -8 z m 0 0" fill="#9a9996"/>
    <path d="m 32 116.5 c -3.035156 0 -5.84375 -1.621094 -7.359375 -4.25 c -1.519531 -2.628906 -1.519531 -5.871094 0 -8.5 c 1.515625 -2.628906 4.324219 -4.25 7.359375 -4.25" fill="none" stroke="#9a9996" stroke-linecap="round" stroke-linejoin="round" stroke-width="0.999997"/>
    <path d="m 68 28.480469 v 2.71875 h 7.382812 v 0.09375 l -7.382812 4.265625 v 2.667968 h 12 v -2.714843 h -7.382812 v -0.09375 l 7.382812 -4.242188 v -2.695312 z m 0 11.507812 v 8.011719 h 2.25 v -5.292969 h 2.625 v 4.472657 h 2.25 v -4.472657 h 2.625 v 5.292969 h 2.25 v -8.011719 z m 12 9.5625 l -12 3.042969 v 2.769531 l 7.523438 1.988281 v 0.09375 l -7.523438 1.992188 v 2.761719 l 12 3.046875 v -2.460938 l -8.085938 -2.011718 v -0.09375 l 8.085938 -2.085938 v -2.390625 l -8.0625 -2.085937 v -0.089844 l 8.0625 -2.015625 z m -8.109375 16.804688 c -2.835937 0 -4.050781 2.34375 -4.050781 4.734375 c 0 2.601562 1.261718 4.429687 3.535156 4.429687 c 1.945312 0 2.929688 -1.335937 3.726562 -3.585937 l 0.140626 -0.328125 c 0.46875 -1.289063 0.773437 -2.25 1.523437 -2.25 c 0.675781 0 1.125 0.75 1.125 1.804687 c 0 1.171875 -0.5625 1.734375 -1.453125 1.78125 v 2.578125 c 2.273438 0 3.722656 -1.78125 3.722656 -4.359375 s -1.359375 -4.453125 -3.375 -4.453125 c -1.777344 0 -2.925781 1.476563 -3.535156 3.46875 l -0.070312 0.234375 c -0.585938 1.851563 -1.101563 2.484375 -1.828126 2.484375 c -0.632812 0 -1.261718 -0.539062 -1.261718 -1.804687 s 0.628906 -2.0625 1.800781 -2.109375 z m 0 0" fill="#9a9996"/>
    <path d="m 38 68 v 24 h 26 v -24 z m 0 0" fill="#c0bfbc"/>
    <path d="m 32 12 c -4.289062 0 -8.25 2.285156 -10.390625 6 c -1.054687 1.824219 -1.609375 3.894531 -1.609375 6 v 0.125 v 23.707031 c 0.027344 -2.046875 0.582031 -4.054687 1.609375 -5.832031 c 2.140625 -3.714844 6.101563 -6 10.390625 -6 z m 0 0" fill="#deddda"/>
    <path d="m 74 14 v 12 h 6 v -12 z m 0 0" fill="#deddda"/>
    <path d="m 70 16 v 8 h 2 v -8 z m 0 0" fill="#deddda"/>
    <path d="m 70 16 v 8 h 6 v -8 z m 0 0" fill="#deddda"/>
    <path d="m 34 12 v 24 h 18 v -24 z m 0 0" fill="#c0bfbc"/>
    <g fill="#deddda">
        <path d="m 46 40 h 18 v 24 h -18 z m 0 0"/>
        <path d="m 42 40 h 4 v 10 h -4 z m 0 0"/>
        <path d="m 32 40 h 8 v 24 h -8 z m 0 0"/>
        <path d="m 100 48 c 2.859375 0 5.5 1.523438 6.925781 4 c 0.703125 1.214844 1.074219 2.597656 1.074219 4 v 24 c 0 -1.402344 -0.371094 -2.785156 -1.074219 -4 c -1.425781 -2.476562 -4.066406 -4 -6.925781 -4 z m 0 0"/>
        <path d="m 100 76 c 2.859375 0 5.5 1.523438 6.925781 4 c 0.703125 1.214844 1.074219 2.59375 1.074219 4 v 24 c 0 -1.40625 -0.371094 -2.785156 -1.074219 -4 c -1.425781 -2.476562 -4.066406 -4 -6.925781 -4 z m 0 0"/>
        <path d="m 32 68 c -4.289062 0 -8.25 2.285156 -10.390625 6 c -1.054687 1.824219 -1.609375 3.894531 -1.609375 6 v 0.125 v 23.707031 c 0.027344 -2.046875 0.582031 -4.054687 1.609375 -5.832031 c 2.140625 -3.714844 6.101563 -6 10.390625 -6 z m 0 0"/>
        <path d="m 74 78 v 12 h 6 v -12 z m 0 0"/>
        <path d="m 70 80 v 8 h 2 v -8 z m 0 0"/>
        <path d="m 70 80 v 8 h 6 v -8 z m 0 0"/>
        <path d="m 58 12 h 6 v 24 h -6 z m 0 0"/>
        <path d="m 54 12 h 6 v 16 h -6 z m 0 0"/>
        <path d="m 32 40 c -4.289062 0 -8.25 2.285156 -10.390625 6 c -1.054687 1.824219 -1.609375 3.894531 -1.609375 6 v 0.125 v 23.707031 c 0.027344 -2.046875 0.582031 -4.054687 1.609375 -5.832031 c 2.140625 -3.714844 6.101563 -6 10.390625 -6 z m 0 0"/>
    </g>
    <path d="m 100 16 v 88 c 2.859375 0 5.5 1.523438 6.929688 4 c 0.664062 1.15625 1.03125 2.464844 1.066406 3.800781 c 0 -0.035156 0.003906 -0.066406 0.003906 -0.097656 v -87.40625 c 0 -4.597656 -3.566406 -8.296875 -8 -8.296875 z m 0 0" fill="url(#i)"/>
    <path d="m 32 68 v 24 h 4 v -24 z m 0 0" fill="#deddda"/>
    <path d="m 27 88 h 3 v 6 h -3 z m 0 0" fill="#ffffff"/>
    <path d="m 32 74 c -4.289062 0 -8.25 2.285156 -10.390625 6 c -1.054687 1.824219 -1.609375 3.894531 -1.609375 6 v 0.125 v 13.707031 c 0.027344 -2.046875 0.582031 -4.054687 1.609375 -5.832031 c 2.140625 -3.714844 6.101563 -6 10.390625 -6 z m 0 0" fill="#deddda"/>
    <path d="m 32 8.019531 c -4.289062 0 -8.25 2.289063 -10.390625 6 c -1.054687 1.824219 -1.609375 3.894531 -1.609375 6 v 0.125 v 87.710938 c 0.027344 -2.050781 0.582031 -4.058594 1.609375 -5.835938 c 2.140625 -3.710937 6.101563 -6 10.390625 -6 z m 0 0" fill="url(#j)"/>
    <g clip-path="url(#l)" mask="url(#k)" transform="matrix(1 0 0 1 -8 -16)">
        <path d="m 40 69 c -6.628906 0 -12 5.371094 -12 12 v 8 c 0 -6.628906 5.371094 -12 12 -12 h 64 c 6.628906 0 12 5.371094 12 12 v -8 c 0 -6.628906 -5.371094 -12 -12 -12 z m 0 0"/>
    </g>
    <path d="m 32 52 c -6.628906 0 -12 5.371094 -12 12 v 8 c 0 -6.628906 5.371094 -12 12 -12 h 64 c 6.628906 0 12 5.371094 12 12 v -8 c 0 -6.628906 -5.371094 -12 -12 -12 z m 0 0" fill="url(#m)"/>
</svg>
