<?xml version="1.0" encoding="UTF-8"?>
<svg height="128px" viewBox="0 0 128 128" width="128px" xmlns="http://www.w3.org/2000/svg" xmlns:xlink="http://www.w3.org/1999/xlink">
    <linearGradient id="a" gradientUnits="userSpaceOnUse" x1="116.204772" x2="600.204772" y1="65.999989" y2="-488.080059">
        <stop offset="0" stop-color="#b2d1e9"/>
        <stop offset="0.135804" stop-color="#c0c6cd"/>
        <stop offset="0.452679" stop-color="#d2dee8"/>
        <stop offset="0.719533" stop-color="#bfc5ce"/>
        <stop offset="0.937054" stop-color="#dbe2e8"/>
        <stop offset="1" stop-color="#e4e6e8"/>
    </linearGradient>
    <linearGradient id="b" gradientTransform="matrix(0 0.265625 -0.265625 0 88.251752 -6.52276)" gradientUnits="userSpaceOnUse" x1="99.845581" x2="431.138855" y1="91.300674" y2="91.300674">
        <stop offset="0" stop-color="#f6d32d"/>
        <stop offset="1" stop-color="#f9f06b"/>
    </linearGradient>
    <radialGradient id="c" cx="273.942749" cy="67.197746" gradientTransform="matrix(0.256574 -0.0687488 0.0687538 0.256593 -10.395696 58.823815)" gradientUnits="userSpaceOnUse" r="56">
        <stop offset="0" stop-color="#ffffff"/>
        <stop offset="1" stop-color="#c4c5c3"/>
    </radialGradient>
    <path d="m 20 12 h 88 c 4.417969 0 8 3.582031 8 8 v 88 c 0 4.417969 -3.582031 8 -8 8 h -88 c -4.417969 0 -8 -3.582031 -8 -8 v -88 c 0 -4.417969 3.582031 -8 8 -8 z m 0 0" fill="url(#a)"/>
    <path d="m 124 64 c 0 33.136719 -26.863281 60 -60 60 s -60 -26.863281 -60 -60 s 26.863281 -60 60 -60 s 60 26.863281 60 60 z m 0 0" fill="url(#a)"/>
    <path d="m 116 64 c 0 28.71875 -23.28125 52 -52 52 s -52 -23.28125 -52 -52 c 0 -28.722656 23.28125 -52.003906 52 -52.003906 s 52 23.28125 52 52.003906 z m 0 0"/>
    <path d="m 112 64 c 0 26.507812 -21.492188 48 -48 48 s -48 -21.492188 -48 -48 c 0 -26.511719 21.492188 -48.003906 48 -48.003906 s 48 21.492187 48 48.003906 z m 0 0" fill="#2a2a3b"/>
    <path d="m 64 108 c -24.300781 0 -44 -19.699219 -44 -44 s 19.699219 -44 44 -44 s 44 19.699219 44 44 s -19.699219 44 -44 44 z m 0 0" fill="url(#b)"/>
    <path d="m 84 64 c 0 11.046875 -8.953125 20 -20 20 s -20 -8.953125 -20 -20 s 8.953125 -20.003906 20 -20.003906 s 20 8.957031 20 20.003906 z m 0 0"/>
    <path d="m 79.453125 59.859375 c 2.289063 8.535156 -2.777344 17.308594 -11.3125 19.597656 c -8.535156 2.285157 -17.308594 -2.78125 -19.59375 -11.316406 c -2.289063 -8.535156 2.777344 -17.308594 11.3125 -19.597656 c 8.535156 -2.285157 17.308594 2.78125 19.59375 11.316406 z m 0 0" fill="url(#c)"/>
    <path d="m 24 106 c 0 1.125 -0.894531 2.035156 -2 2.035156 s -2 -0.910156 -2 -2.035156 s 0.894531 -2.035156 2 -2.035156 s 2 0.910156 2 2.035156 z m 84 0 c 0 1.125 -0.894531 2.035156 -2 2.035156 s -2 -0.910156 -2 -2.035156 s 0.894531 -2.035156 2 -2.035156 s 2 0.910156 2 2.035156 z m 0 -84 c 0 1.125 -0.894531 2.035156 -2 2.035156 s -2 -0.910156 -2 -2.035156 s 0.894531 -2.035156 2 -2.035156 s 2 0.910156 2 2.035156 z m -84 0 c 0 1.125 -0.894531 2.035156 -2 2.035156 s -2 -0.910156 -2 -2.035156 s 0.894531 -2.035156 2 -2.035156 s 2 0.910156 2 2.035156 z m 0 0"/>
</svg>
