<?xml version="1.0" encoding="UTF-8"?>
<svg height="128px" viewBox="0 0 128 128" width="128px" xmlns="http://www.w3.org/2000/svg" xmlns:xlink="http://www.w3.org/1999/xlink">
    <linearGradient id="a" gradientTransform="matrix(1.001506 0 0 0.999934 72.090378 -115.984825)" gradientUnits="userSpaceOnUse" x1="43.843597" x2="-60.000004" y1="234.000137" y2="234.000137">
        <stop offset="0" stop-color="#d5d3cf"/>
        <stop offset="0.0384615" stop-color="#e3e2df"/>
        <stop offset="0.0769231" stop-color="#c0bfbc"/>
        <stop offset="0.923077" stop-color="#c0bfbc"/>
        <stop offset="0.961538" stop-color="#e3e2df"/>
        <stop offset="1" stop-color="#d5d3cf"/>
    </linearGradient>
    <radialGradient id="b" cx="-24.238829" cy="225.595581" gradientTransform="matrix(1.757743 -0.0000001 0.00000004 1.949585 106.605637 -334.544952)" gradientUnits="userSpaceOnUse" r="24">
        <stop offset="0" stop-color="#ffffff"/>
        <stop offset="1" stop-color="#f6f5f4"/>
    </radialGradient>
    <linearGradient id="c" gradientTransform="matrix(0 6 -12 0 95.927826 35.999986)" gradientUnits="userSpaceOnUse" x1="0" x2="1" y1="0" y2="0">
        <stop offset="0" stop-color="#c01c27"/>
        <stop offset="1" stop-color="#e01b24"/>
    </linearGradient>
    <path d="m 20 68 h 88 c 4.417969 0 8 3.582031 8 8 v 32 c 0 4.417969 -3.582031 8 -8 8 h -88 c -4.417969 0 -8 -3.582031 -8 -8 v -32 c 0 -4.417969 3.582031 -8 8 -8 z m 0 0" fill="url(#a)"/>
    <path d="m 20 12 c -4.433594 0 -8 3.566406 -8 8 v 84 c 0 4.433594 3.566406 8 8 8 h 88 c 4.433594 0 8 -3.566406 8 -8 v -84 c 0 -4.433594 -3.566406 -8 -8 -8 h -42 v 2 h -4 v -2 z m 0 0" fill="url(#b)"/>
    <path d="m 89.070312 20 h 1.859376 c 7.21875 0 13.070312 5.851562 13.070312 13.070312 v 1.859376 c 0 7.21875 -5.851562 13.070312 -13.070312 13.070312 h -1.859376 c -7.21875 0 -13.070312 -5.851562 -13.070312 -13.070312 v -1.859376 c 0 -7.21875 5.851562 -13.070312 13.070312 -13.070312 z m 0 0" fill="#f5c211"/>
    <path d="m 83.929688 37.003906 h 12 v 0.996094 c 0 2.210938 -1.792969 4 -4 4 h -4 c -2.210938 0 -4 -1.789062 -4 -4 z m 0 0" fill="url(#c)"/>
    <path d="m 83.929688 36 h 12 v 2 h -12 z m 0 0" fill="#ffffff"/>
    <path d="m 83.929688 31 c 0 -0.550781 0.445312 -1 1 -1 c 0.550781 0 1 0.449219 1 1 v 3 h -2 z m 0 0" fill="#b45600"/>
    <path d="m 93.929688 31 c 0 -0.550781 0.445312 -1 1 -1 c 0.550781 0 1 0.449219 1 1 v 3 h -2 z m 0 0" fill="#b45600"/>
    <path d="m 28 22 v 17 s 0.125 2.820312 -2.894531 4.328125 l 1.789062 3.574219 c 4.980469 -2.488282 5.105469 -7.902344 5.105469 -7.902344 v -1 h 12 v 2 s -0.027344 1.167969 -0.46875 2.230469 c -0.445312 1.0625 -0.832031 1.769531 -2.53125 1.769531 h -1 l -2 4 h 3 c 3.300781 0 5.414062 -2.292969 6.21875 -4.230469 c 0.808594 -1.9375 0.78125 -3.769531 0.78125 -3.769531 v -18 z m 4 4 h 12 v 2 h -12 z m 0 6 h 12 v 2 h -12 z m 0 0" fill="#62a0ea"/>
    <path d="m 94 72 c -1.105469 0 -2 0.894531 -2 2 s 0.894531 2 2 2 s 2 -0.894531 2 -2 s -0.894531 -2 -2 -2 z m -4 6 c -1.105469 0 -2 0.894531 -2 2 s 0.894531 2 2 2 s 2 -0.894531 2 -2 s -0.894531 -2 -2 -2 z m 8 0 c -1.105469 0 -2 0.894531 -2 2 s 0.894531 2 2 2 s 2 -0.894531 2 -2 s -0.894531 -2 -2 -2 z m 6 6 l -4 2 v 4 h -4 v -4 l -4 2 v 2 l -8 -0.003906 l 0.074219 4.003906 c -0.003907 1.128906 -0.875 1.996094 -2 1.996094 c -1.128907 0 -2 -0.871094 -2 -2 h -4 c 0 3.292968 2.707031 6 6 6 c 3.289062 0 6 -2.707032 6 -6 l 15.925781 0.003906 z m -15.925781 3.996094 l -4 2 h 4 z m 0 0" fill="#26a269"/>
    <path d="m 76.070312 93.996094 l 4 -2 v 2 z m 0 0" fill="#26a269"/>
    <g fill="none">
        <path d="m 12 62 h 104" stroke="#deddda" stroke-width="4"/>
        <path d="m 12 61 h 104" stroke="#c0bfbc" stroke-width="2"/>
        <path d="m 64 14 v 100" stroke="#deddda" stroke-width="4"/>
    </g>
    <path d="m 36.160156 84.152344 c 0 -0.75 -0.121094 -1.398438 -0.367187 -1.945313 c -0.246094 -0.5625 -0.570313 -1.03125 -0.976563 -1.410156 c -0.15625 -0.15625 -0.324218 -0.304687 -0.503906 -0.4375 c -0.265625 -0.203125 -0.457031 -0.359375 -0.570312 -0.46875 c -0.445313 -0.425781 -0.78125 -0.917969 -1.003907 -1.480469 c -0.226562 -0.558594 -0.335937 -1.152344 -0.335937 -1.777344 c 0 -0.648437 0.117187 -1.246093 0.351562 -1.796874 c 0.234375 -0.546876 0.566406 -1.035157 0.988282 -1.460938 c 0.359374 -0.355469 0.863281 -0.691406 1.511718 -1.003906 c 0.515625 -0.246094 1.089844 -0.371094 1.730469 -0.371094 c 0.636719 0 1.222656 0.125 1.761719 0.371094 c 0.605468 0.265625 1.105468 0.601562 1.511718 1.003906 c 0.421876 0.425781 0.753907 0.914062 0.988282 1.460938 c 0.234375 0.550781 0.351562 1.148437 0.351562 1.796874 c 0 0.683594 -0.117187 1.292969 -0.351562 1.828126 c -0.234375 0.527343 -0.566406 1.003906 -0.988282 1.429687 c -0.113281 0.109375 -0.316406 0.265625 -0.605468 0.46875 c -0.089844 0.066406 -0.246094 0.210937 -0.46875 0.4375 c -0.460938 0.445313 -0.800782 0.945313 -1.027344 1.492187 c -0.210938 0.539063 -0.316406 1.160157 -0.316406 1.863282 c 0.761718 0 1.421875 -0.128906 1.980468 -0.386719 c 0.570313 -0.269531 1.039063 -0.585937 1.410157 -0.957031 c 0.144531 -0.144532 0.285156 -0.308594 0.417969 -0.484375 c 0.203124 -0.28125 0.359374 -0.476563 0.472656 -0.589844 c 0.433594 -0.433594 0.933594 -0.765625 1.492187 -0.988281 c 0.558594 -0.234375 1.152344 -0.355469 1.777344 -0.355469 c 0.652344 0 1.25 0.121094 1.796875 0.355469 c 0.550781 0.234375 1.035156 0.5625 1.460938 0.988281 c 0.402343 0.402344 0.738281 0.90625 1.007812 1.511719 c 0.234375 0.527344 0.351562 1.109375 0.351562 1.746094 c 0 0.636718 -0.117187 1.21875 -0.351562 1.746093 c -0.269531 0.601563 -0.605469 1.105469 -1.007812 1.507813 c -0.425782 0.425781 -0.910157 0.757812 -1.460938 0.992187 c -0.546875 0.234375 -1.144531 0.351563 -1.796875 0.351563 c -0.625 0 -1.21875 -0.109375 -1.777344 -0.335938 c -0.558593 -0.234375 -1.058593 -0.570312 -1.492187 -1.007812 c -0.113282 -0.109375 -0.269532 -0.304688 -0.472656 -0.585938 c -0.132813 -0.179687 -0.273438 -0.339844 -0.417969 -0.488281 c -0.460938 -0.433594 -0.964844 -0.765625 -1.511719 -0.988281 c -0.535156 -0.234375 -1.164062 -0.351563 -1.878906 -0.351563 c 0 0.757813 0.128906 1.425781 0.386718 1.996094 c 0.265626 0.558594 0.585938 1.023437 0.957032 1.394531 c 0.144531 0.144532 0.304687 0.285156 0.484375 0.417969 c 0.28125 0.203125 0.476562 0.359375 0.589843 0.46875 c 0.433594 0.4375 0.765626 0.9375 0.988282 1.496094 c 0.234375 0.558593 0.351562 1.152343 0.351562 1.777343 c 0 0.648438 -0.117187 1.25 -0.351562 1.796876 c -0.234375 0.546874 -0.566406 1.035156 -0.988282 1.460937 c -0.40625 0.402344 -0.90625 0.738281 -1.511718 1.007813 c -0.527344 0.234374 -1.109375 0.351562 -1.746094 0.351562 s -1.21875 -0.117188 -1.746094 -0.351562 c -0.605468 -0.269532 -1.105468 -0.605469 -1.511718 -1.007813 c -0.421876 -0.425781 -0.753907 -0.914063 -0.988282 -1.460937 c -0.234375 -0.546876 -0.351562 -1.148438 -0.351562 -1.796876 c 0 -0.625 0.109375 -1.21875 0.335937 -1.777343 c 0.234375 -0.558594 0.570313 -1.058594 1.003907 -1.496094 c 0.113281 -0.109375 0.308593 -0.265625 0.589843 -0.46875 c 0.179688 -0.132813 0.339844 -0.273437 0.484375 -0.417969 c 0.4375 -0.460937 0.769532 -0.957031 0.992188 -1.496094 c 0.234375 -0.546874 0.351562 -1.179687 0.351562 -1.894531 c -0.703125 0 -1.335937 0.117188 -1.894531 0.351563 c -0.550781 0.222656 -1.042969 0.554687 -1.480469 0.988281 c -0.15625 0.160156 -0.300781 0.328125 -0.433594 0.503906 c -0.203124 0.269531 -0.359374 0.460938 -0.472656 0.570313 c -0.421875 0.449218 -0.914062 0.785156 -1.476562 1.007812 c -0.558594 0.226563 -1.152344 0.335938 -1.777344 0.335938 c -0.648438 0 -1.25 -0.117188 -1.796875 -0.351563 s -1.035156 -0.566406 -1.460937 -0.992187 c -0.367188 -0.355469 -0.703126 -0.859375 -1.007813 -1.507813 c -0.246094 -0.515625 -0.367187 -1.09375 -0.367187 -1.730469 c 0 -0.636718 0.121093 -1.226562 0.367187 -1.761718 c 0.269531 -0.605469 0.605469 -1.109375 1.007813 -1.511719 c 0.425781 -0.425781 0.914062 -0.753906 1.460937 -0.988281 s 1.148437 -0.355469 1.796875 -0.355469 c 0.683594 0 1.285156 0.121094 1.8125 0.355469 c 0.535156 0.234375 1.019531 0.5625 1.441406 0.988281 c 0.113282 0.113281 0.269532 0.3125 0.472656 0.605469 c 0.066407 0.089844 0.210938 0.246094 0.433594 0.46875 c 0.449219 0.449218 0.949219 0.785156 1.496094 1.007812 s 1.175781 0.335938 1.878906 0.335938 z m 0 0" fill="#a347ba"/>
</svg>
